<?xml version="1.0" standalone="no"?>
<!DOCTYPE svg PUBLIC "-//W3C//DTD SVG 20010904//EN"
 "http://www.w3.org/TR/2001/REC-SVG-20010904/DTD/svg10.dtd">
<svg version="1.0" xmlns="http://www.w3.org/2000/svg"
 width="260.000000pt" height="260.000000pt" viewBox="0 0 260.000000 260.000000"
 preserveAspectRatio="xMidYMid meet">
<metadata>
Created by potrace 1.11, written by Peter Selinger 2001-2013
</metadata>
<g transform="translate(0.000000,260.000000) scale(0.100000,-0.100000)"
fill="#000000" stroke="none">
<path d="M70 1966 c0 -2 9 -32 19 -67 10 -35 21 -73 24 -84 3 -11 21 -78 41
-150 21 -71 39 -137 41 -145 2 -8 14 -49 25 -90 11 -41 23 -82 25 -90 4 -18
68 -246 135 -485 26 -93 51 -182 54 -198 l6 -27 177 2 176 3 92 300 c50 165
111 365 135 444 l44 144 18 -54 c10 -30 20 -61 22 -69 1 -8 18 -62 36 -120 18
-58 34 -109 36 -115 1 -5 11 -41 24 -80 12 -38 44 -144 71 -235 27 -91 54
-177 60 -193 l11 -27 592 0 591 0 0 110 1 110 -413 0 c-365 0 -413 2 -413 15
0 9 9 44 19 78 11 34 52 179 91 322 40 143 99 356 131 473 32 117 59 217 59
222 0 6 -66 10 -170 10 l-170 0 -6 -27 c-3 -16 -14 -62 -25 -103 -10 -41 -52
-216 -94 -389 -41 -172 -75 -315 -77 -316 -2 -2 -34 103 -71 233 -37 130 -92
318 -120 417 l-53 180 -146 3 -146 3 -16 -48 c-8 -27 -45 -151 -81 -278 -37
-126 -85 -291 -107 -365 -22 -74 -47 -161 -56 -194 -9 -36 -18 -53 -22 -45 -7
13 -31 112 -61 244 -6 28 -12 57 -14 65 -3 8 -37 151 -77 318 l-72 302 -173 0
c-95 0 -173 -2 -173 -4z"/>
</g>
</svg>
